<?xml version="1.0" standalone="no"?>
<!DOCTYPE svg PUBLIC "-//W3C//DTD SVG 20010904//EN"
 "http://www.w3.org/TR/2001/REC-SVG-20010904/DTD/svg10.dtd">
<svg version="1.0" xmlns="http://www.w3.org/2000/svg"
 width="1200.000000pt" height="2195.000000pt" viewBox="0 0 1200.000000 2195.000000"
 preserveAspectRatio="xMidYMid meet">
<metadata>
Created by potrace 1.16, written by Peter Selinger 2001-2019
</metadata>
<g transform="translate(0.000000,2195.000000) scale(0.100000,-0.100000)"
fill="#000000" stroke="none">
<path d="M10150 13764 c-237 -27 -430 -80 -527 -143 -62 -41 -151 -127 -141
-136 3 -4 34 3 67 14 93 31 280 70 362 77 214 18 483 -72 660 -220 165 -138
260 -296 299 -494 18 -89 8 -297 -19 -389 -98 -339 -353 -665 -782 -1000 -108
-85 -367 -263 -461 -317 -219 -127 -273 -158 -335 -190 -40 -21 -79 -48 -87
-61 -8 -12 -22 -30 -31 -39 -15 -15 -15 -16 3 -16 11 0 102 24 203 54 778 230
1352 535 1720 912 284 292 419 583 419 901 -1 256 -90 475 -272 668 -174 184
-402 305 -680 360 -72 15 -331 27 -398 19z"/>
<path d="M4090 13623 c-511 -24 -1146 -170 -1688 -389 -349 -141 -545 -247
-604 -328 -26 -36 -29 -47 -25 -96 4 -49 8 -58 50 -95 212 -193 1016 -337
2142 -384 242 -11 1339 -11 1595 0 1084 43 2063 163 2824 346 138 33 156 40
245 96 107 68 339 191 486 258 53 24 90 45 82 47 -8 2 -124 -15 -258 -37 -751
-124 -1549 -220 -2244 -270 -1836 -134 -3327 -96 -3741 94 -78 36 -114 73
-114 118 0 76 180 195 463 306 247 98 676 231 970 302 53 13 97 27 97 31 0 8
-135 8 -280 1z"/>
<path d="M3645 11911 c-422 -149 -663 -317 -700 -488 -18 -84 50 -195 168
-275 282 -192 834 -321 1667 -390 209 -18 1141 -17 1390 0 704 49 1329 141
1955 288 147 35 516 133 524 140 2 2 -9 9 -25 15 -192 79 -359 177 -501 292
-45 37 -90 67 -99 67 -9 0 -114 -18 -233 -39 -578 -106 -1188 -184 -1601 -206
-63 -4 -128 -8 -145 -11 -63 -9 -838 -12 -1005 -4 -244 13 -568 37 -810 60
-495 48 -680 125 -680 283 0 67 38 136 124 224 39 40 67 73 61 73 -5 -1 -46
-14 -90 -29z"/>
<path d="M3945 10275 c-377 -127 -559 -270 -559 -440 0 -98 62 -190 189 -280
311 -220 864 -372 1605 -442 228 -21 865 -24 1095 -4 612 51 1136 153 1644
321 166 55 471 171 471 181 0 3 -24 13 -52 23 -53 19 -425 189 -463 211 -11 7
-69 38 -130 70 -60 32 -122 66 -137 76 -14 11 -33 19 -42 19 -8 0 -100 -15
-203 -34 -397 -73 -779 -126 -1143 -158 -188 -16 -824 -16 -1040 0 -201 16
-532 48 -689 67 -367 46 -551 125 -551 238 0 34 51 108 101 147 24 18 48 37
54 42 19 17 -23 6 -150 -37z"/>
<path d="M2374 9240 c-558 -59 -1271 -314 -1601 -572 -130 -102 -193 -196
-193 -288 0 -185 242 -306 788 -394 1045 -169 2036 -265 3152 -306 255 -10
1463 -14 1525 -6 17 3 120 7 230 11 515 15 1171 67 1710 136 1378 174 2432
483 2772 811 47 46 88 117 98 170 18 97 -74 217 -228 295 -58 29 -71 23 -34
-15 60 -63 83 -165 52 -237 -33 -80 -170 -188 -320 -254 -313 -136 -1045 -282
-1845 -366 -704 -74 -1568 -130 -2250 -146 -380 -8 -1604 -2 -1860 10 -1308
60 -2149 183 -2661 388 -106 42 -189 110 -189 155 0 30 43 96 85 131 57 46
210 127 336 177 319 126 616 195 919 216 l104 6 -47 24 c-25 13 -75 31 -109
39 -76 19 -321 27 -434 15z"/>
<path d="M11486 8345 c-31 -48 -50 -66 -131 -129 -192 -150 -435 -267 -824
-396 -754 -251 -1821 -444 -3016 -544 -372 -32 -630 -46 -1260 -72 -251 -10
-1242 -6 -1535 6 -807 32 -1551 98 -2051 179 -63 10 -116 17 -118 15 -15 -14
164 -94 309 -137 519 -157 1324 -254 2455 -297 230 -8 1724 -6 1780 4 17 2
102 7 190 11 586 21 1324 92 1885 181 1131 179 1887 467 2181 832 72 89 132
209 150 300 13 71 9 84 -15 47z"/>
<path d="M990 4013 c0 -1904 -5 -2283 -31 -2497 -31 -255 -108 -427 -270 -600
-111 -119 -275 -248 -387 -305 -23 -12 -42 -25 -42 -29 0 -5 77 -99 171 -209
l171 -200 51 19 c131 50 320 155 448 249 115 85 303 276 371 379 131 195 192
376 235 690 15 114 17 319 20 2308 l4 2182 -371 0 -370 0 0 -1987z"/>
<path d="M3440 4850 c-235 -22 -497 -77 -720 -150 -152 -50 -301 -111 -307
-126 -4 -10 74 -368 92 -421 3 -8 34 -2 107 23 372 126 768 185 1041 155 286
-31 440 -135 514 -347 26 -75 27 -89 31 -309 l4 -231 -319 -12 c-324 -13 -480
-29 -659 -71 -529 -125 -856 -396 -960 -798 -20 -75 -27 -133 -31 -244 -21
-575 269 -916 837 -980 127 -14 342 -7 458 16 229 44 472 163 684 333 l87 70
10 -66 c6 -37 18 -118 27 -179 l17 -113 279 0 279 0 -4 1298 c-3 1124 -6 1307
-19 1372 -89 431 -361 678 -838 761 -133 23 -456 33 -610 19z m760 -2267 l0
-398 -33 -27 c-204 -162 -366 -248 -549 -289 -280 -62 -527 29 -627 232 -80
162 -77 407 5 560 83 153 279 259 554 298 122 18 124 18 393 20 l257 1 0 -397z"/>
<path d="M9825 4854 c-304 -24 -582 -85 -868 -189 -211 -76 -220 -81 -214
-113 14 -63 97 -405 99 -408 2 -1 57 16 123 37 335 111 678 168 940 155 334
-16 515 -122 595 -349 26 -75 40 -206 40 -394 l0 -153 -112 0 c-107 -1 -161
-3 -410 -15 -379 -19 -751 -123 -989 -277 -268 -173 -420 -416 -459 -732 -21
-160 -1 -372 47 -516 38 -112 133 -265 205 -325 187 -159 388 -229 693 -242
160 -6 269 4 413 37 200 47 445 176 630 330 34 27 65 50 69 50 5 0 20 -78 33
-172 l25 -173 278 -3 278 -2 -4 1312 c-3 1219 -4 1318 -21 1387 -60 250 -178
431 -363 559 -107 75 -289 141 -473 173 -112 20 -430 33 -555 23z m715 -2268
l0 -394 -42 -37 c-160 -137 -393 -256 -569 -290 -325 -61 -573 70 -644 342
-19 71 -21 259 -4 329 40 163 161 292 337 358 175 65 318 84 655 85 l267 1 0
-394z"/>
<path d="M5310 4790 c0 -6 113 -378 251 -828 138 -449 372 -1208 519 -1687
l267 -870 441 -3 c440 -2 441 -2 447 19 4 11 26 62 50 112 314 671 647 1678
844 2552 56 248 141 672 141 702 0 11 -69 13 -369 13 -418 0 -374 10 -386 -90
-10 -86 -81 -513 -109 -651 -111 -557 -265 -1129 -451 -1679 -37 -107 -71
-210 -76 -227 -6 -18 -14 -33 -18 -33 -4 0 -20 53 -34 118 -60 266 -117 509
-126 532 -5 14 -26 79 -46 145 -20 66 -49 161 -65 210 -15 50 -45 144 -65 210
-20 66 -52 167 -70 225 -29 93 -69 220 -125 405 -11 33 -39 126 -65 207 -25
82 -66 214 -91 295 -25 82 -59 189 -74 238 l-28 90 -381 3 c-254 1 -381 -1
-381 -8z"/>
<path d="M11300 4765 c0 -22 4 -25 40 -25 l40 0 0 -115 0 -115 30 0 30 0 0
115 0 115 40 0 c36 0 40 3 40 25 l0 25 -110 0 -110 0 0 -25z"/>
<path d="M11560 4651 l0 -141 30 0 29 0 3 98 3 97 35 -95 c31 -83 39 -95 59
-95 21 0 28 11 55 85 l31 85 5 -85 5 -85 30 0 30 0 3 138 3 137 -49 0 c-48 0
-49 0 -61 -40 -7 -23 -21 -62 -33 -88 l-20 -47 -33 85 -33 85 -46 3 -46 3 0
-140z"/>
</g>
</svg>
