<?xml version="1.0" standalone="no"?>
<!DOCTYPE svg PUBLIC "-//W3C//DTD SVG 20010904//EN"
 "http://www.w3.org/TR/2001/REC-SVG-20010904/DTD/svg10.dtd">
<svg version="1.0" xmlns="http://www.w3.org/2000/svg"
 width="640.000000pt" height="640.000000pt" viewBox="0 0 640.000000 640.000000"
 preserveAspectRatio="xMidYMid meet">
<metadata>
Created by potrace 1.16, written by Peter Selinger 2001-2019
</metadata>
<g transform="translate(0.000000,640.000000) scale(0.100000,-0.100000)"
fill="#000000" stroke="none">
<path d="M2940 6159 c-596 -53 -1161 -285 -1627 -668 -621 -511 -1003 -1242
-1073 -2051 -70 -810 210 -1626 768 -2244 435 -481 1052 -817 1697 -925 953
-159 1914 148 2595 829 318 318 558 700 704 1120 422 1214 23 2550 -997 3336
-305 235 -698 427 -1064 519 -328 83 -680 112 -1003 84z m-374 -1574 c388 -63
628 -280 699 -634 24 -120 17 -383 -13 -495 -90 -330 -346 -542 -738 -612 -70
-12 -151 -17 -276 -17 l-178 0 0 -492 c0 -440 -2 -494 -16 -499 -20 -8 -388
-8 -408 0 -14 6 -16 136 -16 1375 l0 1369 23 5 c41 9 121 11 477 13 271 2 376
-2 446 -13z m1911 -700 c116 -19 183 -41 206 -67 15 -18 17 -43 17 -203 0
-140 -3 -185 -13 -194 -10 -8 -30 -2 -81 23 -105 53 -230 80 -366 81 -108 0
-119 -2 -175 -30 -32 -16 -68 -42 -78 -56 -40 -56 -38 -142 6 -201 29 -39 150
-119 314 -206 168 -90 242 -140 318 -217 68 -70 117 -153 140 -240 19 -75 19
-240 0 -323 -46 -196 -190 -344 -400 -412 -232 -74 -594 -51 -797 52 l-38 18
0 209 c0 114 2 210 5 213 3 3 52 -19 110 -48 141 -70 253 -97 410 -98 114 -1
123 0 180 29 67 34 92 63 106 124 13 60 -4 114 -54 168 -54 59 -99 89 -259
175 -187 99 -263 151 -339 228 -115 117 -166 260 -155 436 16 264 194 465 471
533 102 25 337 28 472 6z"/>
<path d="M2133 4203 l-73 -4 0 -484 0 -483 76 -7 c78 -8 234 0 314 15 119 23
228 83 290 162 76 96 111 252 91 406 -25 200 -138 325 -336 377 -63 16 -239
25 -362 18z"/>
</g>
</svg>
